<?xml version="1.0" standalone="no"?><!DOCTYPE svg PUBLIC "-//W3C//DTD SVG 1.1//EN" "http://www.w3.org/Graphics/SVG/1.1/DTD/svg11.dtd"><svg t="1556862818717" class="icon" style="" viewBox="0 0 1024 1024" version="1.1" xmlns="http://www.w3.org/2000/svg" p-id="1701" xmlns:xlink="http://www.w3.org/1999/xlink" width="200" height="200"><defs><style type="text/css"></style></defs><path d="M125.62432 706.25792h777.87136V166.6816H125.62432v539.57632z m820.20352-626.8416c23.36768 0 42.33216 19.54304 42.33216 43.63264v626.8416c0 24.17664-18.96448 43.63776-42.33216 43.63776h-388.93568v3.48672l220.03712 146.69824c19.64032 13.09184 25.22624 40.1408 12.61568 60.30336-8.13056 12.91264-21.76 19.98336-35.5584 19.98336a41.472 41.472 0 0 1-23.02976-6.98368l-174.06464-116.06528v48.08704c0 24.08448-18.96448 43.63264-42.33216 43.63264-23.4496 0-42.33216-19.54816-42.33216-43.63264v-48.08704l-174.14656 116.0704A41.40032 41.40032 0 0 1 275.13344 1024c-13.88032 0-27.51488-7.0656-35.5584-19.98336-12.6976-20.15744-7.02464-47.21152 12.53376-60.30336l220.11904-146.69824v-3.48672H83.29216c-23.36768 0-42.33216-19.46112-42.33216-43.63776V123.04896c0-24.0896 18.96448-43.63776 42.33216-43.63776h388.93568V43.63264C472.22784 19.46112 491.1104 0 514.56 0c23.36768 0 42.33216 19.456 42.33216 43.63264v35.77856h388.93568zM382.9248 331.264c14.47424-12.91776 35.64032-14.3104 51.3024-3.31776l175.25248 121.216 154.25536-128.4608c18.2016-15.09376 44.78464-12.21632 59.51488 6.54848 14.73536 18.75968 11.93984 46.16192-6.26176 61.34784l-178.55488 148.61824c-14.47424 12.04224-34.96448 12.91264-50.2016 2.26816l-174.2336-120.42752-147.48672 132.20864a41.64096 41.64096 0 0 1-27.76576 10.6496c-11.8528 0-23.53664-5.0688-31.91808-15.01184-15.4112-18.1504-13.4656-45.73184 4.1472-61.52704l171.95008-154.112z" fill="#304156" p-id="1702"></path></svg>